<?xml version="1.0" encoding="UTF-8"?>
<svg width="73px" height="72px" viewBox="0 0 73 72" version="1.1" xmlns="http://www.w3.org/2000/svg" xmlns:xlink="http://www.w3.org/1999/xlink">
    <!-- Generator: Sketch 45 (43475) - http://www.bohemiancoding.com/sketch -->
    <title>noun_821152_cc copy</title>
    <desc>Created with Sketch.</desc>
    <defs></defs>
    <g id="Page-1" stroke="none" stroke-width="1" fill="none" fill-rule="evenodd">
        <g id="Desktop-HD" transform="translate(-931.000000, -638.000000)" fill-rule="nonzero" fill="#000000">
            <g id="noun_821152_cc-copy" transform="translate(931.000000, 638.000000)">
                <g id="Group">
                    <g id="Shape">
                        <path d="M1.98164946,0.365435742 L0.792659783,0.365435742 L0.792659783,1.55442542 L0.792659783,23.7335217 C0.769919959,25.3413528 3.1933788,25.3413528 3.17063913,23.7335217 L3.17063913,2.74341509 L24.1606411,2.74341509 C25.7685388,2.76560956 25.7685388,0.342765672 24.1606411,0.365435742 L1.98164946,0.365435742 Z"></path>
                        <path d="M1.96307141,47.1323629 C1.3076091,47.1426142 0.784080273,47.6814024 0.792659783,48.3368887 L0.792659783,71.7048162 L24.1606411,71.7048162 C24.5894335,71.7108804 24.9882747,71.4855959 25.2044406,71.1152285 C25.4206065,70.7448611 25.4206065,70.2867919 25.2044406,69.9164245 C24.9882747,69.5460572 24.5894335,69.3207726 24.1606411,69.3268368 L3.17063913,69.3268368 L3.17063913,48.3368887 C3.17484389,48.0156284 3.04886923,47.7063383 2.82139809,47.4794402 C2.59392694,47.252542 2.28432013,47.1273479 1.96307141,47.1323629 Z"></path>
                        <path d="M70.9244722,47.1323629 C70.26901,47.1426144 69.7454814,47.6814025 69.7540609,48.3368887 L69.7540609,69.3268368 L48.7640589,69.3268368 C48.3352665,69.3207726 47.9364253,69.5460572 47.7202594,69.9164245 C47.5040935,70.2867919 47.5040935,70.7448611 47.7202594,71.1152285 C47.9364253,71.4855959 48.3352665,71.7108804 48.7640589,71.7048162 L72.1320402,71.7048162 L72.1320402,48.3368887 C72.136245,48.0156283 72.0102703,47.7063382 71.7827991,47.4794401 C71.5553278,47.2525419 71.245721,47.1273478 70.9244722,47.1323629 L70.9244722,47.1323629 Z"></path>
                        <path d="M48.7640589,0.365435742 C48.3352665,0.35937155 47.9364253,0.584656065 47.7202594,0.955023439 C47.5040935,1.32539081 47.5040935,1.78346002 47.7202594,2.15382739 C47.9364253,2.52419477 48.3352665,2.74947928 48.7640589,2.74341509 L69.7540609,2.74341509 L69.7540609,23.7335217 C69.7479967,24.1623141 69.9732812,24.5611553 70.3436486,24.7773212 C70.7140159,24.993487 71.1720851,24.993487 71.5424525,24.7773212 C71.9128199,24.5611553 72.1381044,24.1623141 72.1320402,23.7335217 L72.1320402,0.365435742 L48.7640589,0.365435742 L48.7640589,0.365435742 Z"></path>
                    </g>
                    <g transform="translate(14.000000, 14.000000)">
                        <path d="M6.70291786,44.6035199 L5.7791294,44.6035199 C2.5924557,44.6035199 0,41.9986744 0,38.7971328 L0,26.1069358 C0,22.9053943 2.5924557,20.3005487 5.7791294,20.3005487 L6.70291786,20.3005487 C7.17422839,20.3005487 7.55583628,20.6826522 7.55583628,21.1534671 L7.55583628,43.7506015 C7.55583628,44.2214165 7.17373279,44.6035199 6.70291786,44.6035199 Z M5.7791294,22.0063856 C3.53309437,22.0063856 1.70633244,23.846033 1.70633244,26.1069358 L1.70633244,38.7966372 C1.70633244,41.0575401 3.53358997,42.8971875 5.7791294,42.8971875 L5.84950384,42.8971875 L5.84950384,22.0063856 L5.7791294,22.0063856 Z" id="Shape"></path>
                        <path d="M3.77791814,28.4000523 C4.08072648,28.4000523 4.32654143,28.6453717 4.32654143,28.9486756 L4.32654143,35.9558886 C4.32654143,36.258697 4.08122207,36.5045119 3.77791814,36.5045119 L3.77791814,36.5045119 C3.4751098,36.5045119 3.22929484,36.2591926 3.22929484,35.9558886 L3.22929484,28.94818 C3.22929484,28.6453717 3.4751098,28.4000523 3.77791814,28.4000523 L3.77791814,28.4000523 Z" id="Shape"></path>
                        <path d="M43.7506015,7.55583628 L21.1534671,7.55583628 C20.6821566,7.55583628 20.3005487,7.17373279 20.3005487,6.70291786 L20.3005487,5.7791294 C20.3005487,2.5924557 22.9053943,0 26.1069358,0 L38.7966372,0 C41.9986744,0 44.6035199,2.5924557 44.6035199,5.7791294 L44.6035199,6.70291786 C44.6035199,7.17373279 44.2214165,7.55583628 43.7506015,7.55583628 Z M22.0063856,5.84950384 L42.8971875,5.84950384 L42.8971875,5.7791294 C42.8971875,3.53309437 41.0575401,1.70633244 38.7966372,1.70633244 L26.1069358,1.70633244 C23.846033,1.70633244 22.0063856,3.53358997 22.0063856,5.7791294 L22.0063856,5.84950384 Z" id="Shape"></path>
                        <path d="M38.7971328,44.6035199 L26.1069358,44.6035199 C22.9053943,44.6035199 20.3005487,42.0110642 20.3005487,38.8243905 L20.3005487,35.1683887 C20.3005487,34.6970782 20.6826522,34.3154703 21.1534671,34.3154703 L43.7506015,34.3154703 C44.2219121,34.3154703 44.6035199,34.6975738 44.6035199,35.1683887 L44.6035199,38.8243905 C44.6035199,42.0110642 41.9986744,44.6035199 38.7971328,44.6035199 Z M22.0063856,36.0213071 L22.0063856,38.8243905 C22.0063856,41.0704256 23.846033,42.8971875 26.1069358,42.8971875 L38.7966372,42.8971875 C41.0575401,42.8971875 42.8971875,41.06993 42.8971875,38.8243905 L42.8971875,36.0213071 L22.0063856,36.0213071 Z" id="Shape"></path>
                        <circle id="Oval" cx="32.4520343" cy="39.2669566" r="1.63001086"></circle>
                        <path d="M36.5040163,3.77791814 C36.5040163,4.08072648 36.258697,4.32654143 35.955393,4.32654143 L28.94818,4.32654143 C28.6453717,4.32654143 28.3995567,4.08122207 28.3995567,3.77791814 L28.3995567,3.77791814 C28.3995567,3.4751098 28.6448761,3.22929484 28.94818,3.22929484 L35.955393,3.22929484 C36.258697,3.22929484 36.5040163,3.4751098 36.5040163,3.77791814 L36.5040163,3.77791814 Z" id="Shape"></path>
                        <path d="M43.7506015,36.0213071 L21.1534671,36.0213071 C20.6821566,36.0213071 20.3005487,35.6392036 20.3005487,35.1683887 L20.3005487,6.70291786 C20.3005487,6.23160733 20.6826522,5.84999944 21.1534671,5.84999944 L43.7506015,5.84999944 C44.2219121,5.84999944 44.6035199,6.23210293 44.6035199,6.70291786 L44.6035199,35.1683887 C44.6035199,35.6396992 44.2214165,36.0213071 43.7506015,36.0213071 Z M22.0063856,34.3154703 L42.8971875,34.3154703 L42.8971875,7.55583628 L22.0063856,7.55583628 L22.0063856,34.3154703 Z" id="Shape"></path>
                        <path d="M26.1069358,44.6035199 L6.70291786,44.6035199 C6.23160733,44.6035199 5.84999944,44.2214165 5.84999944,43.7506015 L5.84999944,21.1534671 C5.84999944,20.6821566 6.23210293,20.3005487 6.70291786,20.3005487 L21.1539627,20.3005487 C21.6252733,20.3005487 22.0068811,20.6826522 22.0068811,21.1534671 L22.0068811,38.8243905 C22.0068811,41.0704256 23.8465285,42.8971875 26.1074314,42.8971875 C26.5787419,42.8971875 26.9603498,43.279291 26.9603498,43.7501059 C26.9603498,44.2209209 26.5782463,44.6035199 26.1069358,44.6035199 Z M7.55583628,42.8971875 L21.9915177,42.8971875 C20.9468042,41.8514828 20.3005487,40.4117803 20.3005487,38.8243905 L20.3005487,22.0063856 L7.55583628,22.0063856 L7.55583628,42.8971875 Z" id="Shape"></path>
                    </g>
                </g>
            </g>
        </g>
    </g>
</svg>