<?xml version="1.0" encoding="UTF-8"?>
<svg width="423px" height="69px" viewBox="0 0 423 69" version="1.1" xmlns="http://www.w3.org/2000/svg" xmlns:xlink="http://www.w3.org/1999/xlink">
    <!-- Generator: Sketch 45 (43475) - http://www.bohemiancoding.com/sketch -->
    <defs></defs>
    <g id="Page-1" stroke="none" stroke-width="1" fill="none" fill-rule="evenodd">
        <g id="Desktop-HD" transform="translate(-738.000000, -300.000000)" fill="#EAEAEA">
            <path d="M787.98,317.78 C786.6,310.144 780.436,300.392 764.152,300.392 C751.64,300.392 740.784,309.04 740.784,321.368 C740.784,331.028 747.5,338.388 758.54,340.504 L767.464,342.16 C771.788,342.988 774.456,345.38 774.456,348.692 C774.456,352.74 770.96,355.5 765.256,355.5 C756.332,355.5 752.284,350.256 751.732,344.276 L738.392,347.496 C739.312,356.696 747.04,368.38 765.072,368.38 C780.62,368.38 789.176,357.984 789.176,347.772 C789.176,338.48 782.736,330.476 770.316,328.176 L761.576,326.52 C757.068,325.692 755.136,323.392 755.136,320.264 C755.136,316.676 758.632,313.272 764.06,313.272 C771.972,313.272 774.456,318.424 774.916,321.46 L787.98,317.78 Z M814.468,332.776 C819.896,332.776 822.656,336.088 823.668,339.584 L836.18,335.812 C834.156,327.624 826.796,319.896 814.192,319.896 C800.76,319.896 790.088,329.924 790.088,344.184 C790.088,358.352 801.036,368.38 814.652,368.38 C826.888,368.38 834.432,360.468 836.456,352.464 L824.128,348.692 C823.116,352.096 820.08,355.5 814.652,355.5 C808.856,355.5 803.98,351.452 803.98,344.184 C803.98,336.824 808.672,332.776 814.468,332.776 Z M869.384,321.276 L869.384,335.076 C867.82,334.708 866.348,334.616 864.968,334.616 C859.356,334.616 854.296,337.928 854.296,347.036 L854.296,367 L840.312,367 L840.312,321.276 L853.836,321.276 L853.836,327.44 C856.228,322.288 862.024,320.816 865.704,320.816 C867.084,320.816 868.464,321 869.384,321.276 Z M883.176001,338.664 L901.484001,338.664 C901.300001,335.168 898.908001,330.936 892.284001,330.936 C886.396001,330.936 883.452001,335.26 883.176001,338.664 Z M902.496001,350.532 L914.180001,353.844 C911.972001,361.756 904.704001,368.38 893.112001,368.38 C880.508001,368.38 869.284001,359.364 869.284001,344 C869.284001,329.28 880.232001,319.896 892.100001,319.896 C906.268001,319.896 915.008001,328.636 915.008001,343.356 C915.008001,345.288 914.824001,347.404 914.732001,347.68 L882.900001,347.68 C883.176001,352.832 887.868001,356.512 893.296001,356.512 C898.356001,356.512 901.208001,354.12 902.496001,350.532 Z M929.904001,338.664 L948.212001,338.664 C948.028001,335.168 945.636001,330.936 939.012001,330.936 C933.124001,330.936 930.180001,335.26 929.904001,338.664 Z M949.224001,350.532 L960.908001,353.844 C958.700001,361.756 951.432001,368.38 939.840001,368.38 C927.236001,368.38 916.012001,359.364 916.012001,344 C916.012001,329.28 926.960001,319.896 938.828001,319.896 C952.996001,319.896 961.736001,328.636 961.736001,343.356 C961.736001,345.288 961.552001,347.404 961.460001,347.68 L929.628001,347.68 C929.904001,352.832 934.596001,356.512 940.024001,356.512 C945.084001,356.512 947.936001,354.12 949.224001,350.532 Z M976.632001,338.664 L994.940001,338.664 C994.756001,335.168 992.364001,330.936 985.740001,330.936 C979.852001,330.936 976.908001,335.26 976.632001,338.664 Z M995.952001,350.532 L1007.636,353.844 C1005.428,361.756 998.160001,368.38 986.568001,368.38 C973.964001,368.38 962.740001,359.364 962.740001,344 C962.740001,329.28 973.688001,319.896 985.556001,319.896 C999.724001,319.896 1008.464,328.636 1008.464,343.356 C1008.464,345.288 1008.28,347.404 1008.188,347.68 L976.356001,347.68 C976.632001,352.832 981.324001,356.512 986.752001,356.512 C991.812001,356.512 994.664001,354.12 995.952001,350.532 Z M1026.764,340.78 C1026.764,336.18 1029.708,332.776 1034.308,332.776 C1039.368,332.776 1041.76,336.18 1041.76,340.688 L1041.76,367 L1055.744,367 L1055.744,338.296 C1055.744,328.268 1050.592,320.08 1039.092,320.08 C1034.4,320.08 1028.788,322.196 1026.304,326.52 L1026.304,321.276 L1012.78,321.276 L1012.78,367 L1026.764,367 L1026.764,340.78 Z M1073.4,338.664 L1091.708,338.664 C1091.524,335.168 1089.132,330.936 1082.508,330.936 C1076.62,330.936 1073.676,335.26 1073.4,338.664 Z M1092.72,350.532 L1104.404,353.844 C1102.196,361.756 1094.928,368.38 1083.336,368.38 C1070.732,368.38 1059.508,359.364 1059.508,344 C1059.508,329.28 1070.456,319.896 1082.324,319.896 C1096.492,319.896 1105.232,328.636 1105.232,343.356 C1105.232,345.288 1105.048,347.404 1104.956,347.68 L1073.124,347.68 C1073.4,352.832 1078.092,356.512 1083.52,356.512 C1088.58,356.512 1091.432,354.12 1092.72,350.532 Z M1138.62,321.276 C1137.7,321 1136.32,320.816 1134.94,320.816 C1131.26,320.816 1125.464,322.288 1123.072,327.44 L1123.072,321.276 L1109.548,321.276 L1109.548,367 L1123.532,367 L1123.532,347.036 C1123.532,337.928 1128.592,334.616 1134.204,334.616 C1135.584,334.616 1137.056,334.708 1138.62,335.076 L1138.62,321.276 Z M1160.048,301.772 L1143.304,301.772 L1146.524,346.576 L1156.828,346.576 L1160.048,301.772 Z M1143.672,360.008 C1143.672,364.332 1147.168,367.92 1151.584,367.92 C1156,367.92 1159.588,364.332 1159.588,360.008 C1159.588,355.592 1156,352.004 1151.584,352.004 C1147.168,352.004 1143.672,355.592 1143.672,360.008 Z" id="Screeener!"></path>
        </g>
    </g>
</svg>
