<?xml version="1.0" encoding="UTF-8"?>
<svg width="73px" height="72px" viewBox="0 0 73 72" version="1.1" xmlns="http://www.w3.org/2000/svg" xmlns:xlink="http://www.w3.org/1999/xlink">
    <!-- Generator: Sketch 45 (43475) - http://www.bohemiancoding.com/sketch -->
    <title>noun_821152_cc copy 3</title>
    <desc>Created with Sketch.</desc>
    <defs></defs>
    <g id="Page-1" stroke="none" stroke-width="1" fill="none" fill-rule="evenodd">
        <g id="Desktop-HD" transform="translate(-1250.000000, -638.000000)" fill="#000000">
            <g id="noun_821152_cc-copy-3" transform="translate(1250.000000, 638.000000)">
                <g id="Group">
                    <g id="Shape">
                        <path d="M36.2734734,23.3248263 C18.0413583,23.3248263 5.43095796,35.1682732 5.43095796,35.1682732 L4.50515623,36.0382966 L5.43095796,36.9053079 C5.43095796,36.9053079 18.0413726,48.7487547 36.2734734,48.7487547 C54.5055727,48.7487547 67.1159908,36.9053079 67.1159908,36.9053079 L68.0448882,36.0382966 L67.1159908,35.1682732 C67.1159908,35.1682732 54.505587,23.3248263 36.2734734,23.3248263 Z M36.2734734,25.7028057 C51.3412162,25.7028057 61.9065023,33.9060418 64.4252818,36.0382966 C61.9035536,38.1726123 51.3381898,46.3707754 36.2734734,46.3707754 C21.2087555,46.3707754 10.643394,38.1726123 8.12166648,36.0382966 C10.640446,33.9060418 21.2057291,25.7028057 36.2734734,25.7028057 Z"></path>
                        <path d="M40.8157865,23.665353 C39.4949601,23.6463292 39.132602,25.4730929 40.3606254,25.959786 C44.3961848,27.6437124 47.0301172,31.6143038 47.0301156,36.035126 C47.0301013,40.4602285 44.3925782,44.4387464 40.3513371,46.1199778 C38.8417815,46.7095582 39.7824974,48.9703824 41.2647538,48.3151698 C47.2353083,45.842864 49.4080949,40.9594456 49.4080949,36.035126 C49.4080965,30.667868 46.2006669,25.8190096 41.2771383,23.7644355 C41.1314633,23.7010227 40.9745912,23.667731 40.8157865,23.6661456 L40.8157865,23.665353 Z" fill-rule="nonzero"></path>
                        <path d="M31.6413678,23.6683651 C31.4941709,23.6683651 31.349287,23.7064128 31.2140751,23.7650696 C26.2902897,25.8194852 23.0800366,30.6683436 23.0800239,36.0357601 C23.0800429,41.395567 26.2821031,46.2409377 31.1954967,48.3004264 C32.6922587,48.9998694 33.6612029,46.6821322 32.1120096,46.1080879 C28.0847605,44.4201982 25.4580191,40.4503995 25.4580033,36.0357601 C25.4580144,31.6147794 28.0948177,27.644188 32.1305879,25.9604201 C33.367811,25.4626298 32.973989,23.6181105 31.6413678,23.6689992 L31.6413678,23.6683651 Z" fill-rule="nonzero"></path>
                        <path d="M36.4871206,31.3441654 C33.9212492,31.3441654 31.8271641,33.4631035 31.8271483,36.035126 C31.8271641,38.607307 33.9212492,40.7292572 36.4871206,40.7292572 C39.052992,40.7292572 41.1470771,38.607307 41.147093,36.035126 C41.1470771,33.4631035 39.052992,31.3441654 36.4871206,31.3441654 Z M36.4871206,33.7221447 C37.7553699,33.7221447 38.7691057,34.7359566 38.7691136,36.035126 C38.7691057,37.3344539 37.7553699,38.3512778 36.4871206,38.3512778 C35.2188713,38.3512778 34.2051355,37.3344539 34.2051276,36.035126 C34.2051355,34.7359566 35.2188713,33.7221447 36.4871206,33.7221447 Z" fill-rule="nonzero"></path>
                        <path d="M1.98164946,0.365435742 L0.792659783,0.365435742 L0.792659783,1.55442542 L0.792659783,23.7335217 C0.769919959,25.3413528 3.1933788,25.3413528 3.17063913,23.7335217 L3.17063913,2.74341509 L24.1606411,2.74341509 C25.7685388,2.76560956 25.7685388,0.342765672 24.1606411,0.365435742 L1.98164946,0.365435742 Z" fill-rule="nonzero"></path>
                        <path d="M1.96307141,47.1323629 C1.3076091,47.1426142 0.784080273,47.6814024 0.792659783,48.3368887 L0.792659783,71.7048162 L24.1606411,71.7048162 C24.5894335,71.7108804 24.9882747,71.4855959 25.2044406,71.1152285 C25.4206065,70.7448611 25.4206065,70.2867919 25.2044406,69.9164245 C24.9882747,69.5460572 24.5894335,69.3207726 24.1606411,69.3268368 L3.17063913,69.3268368 L3.17063913,48.3368887 C3.17484389,48.0156284 3.04886923,47.7063383 2.82139809,47.4794402 C2.59392694,47.252542 2.28432013,47.1273479 1.96307141,47.1323629 Z" fill-rule="nonzero"></path>
                        <path d="M70.9244722,47.1323629 C70.26901,47.1426144 69.7454814,47.6814025 69.7540609,48.3368887 L69.7540609,69.3268368 L48.7640589,69.3268368 C48.3352665,69.3207726 47.9364253,69.5460572 47.7202594,69.9164245 C47.5040935,70.2867919 47.5040935,70.7448611 47.7202594,71.1152285 C47.9364253,71.4855959 48.3352665,71.7108804 48.7640589,71.7048162 L72.1320402,71.7048162 L72.1320402,48.3368887 C72.136245,48.0156283 72.0102703,47.7063382 71.7827991,47.4794401 C71.5553278,47.2525419 71.245721,47.1273478 70.9244722,47.1323629 L70.9244722,47.1323629 Z" fill-rule="nonzero"></path>
                        <path d="M48.7640589,0.365435742 C48.3352665,0.35937155 47.9364253,0.584656065 47.7202594,0.955023439 C47.5040935,1.32539081 47.5040935,1.78346002 47.7202594,2.15382739 C47.9364253,2.52419477 48.3352665,2.74947928 48.7640589,2.74341509 L69.7540609,2.74341509 L69.7540609,23.7335217 C69.7479967,24.1623141 69.9732812,24.5611553 70.3436486,24.7773212 C70.7140159,24.993487 71.1720851,24.993487 71.5424525,24.7773212 C71.9128199,24.5611553 72.1381044,24.1623141 72.1320402,23.7335217 L72.1320402,0.365435742 L48.7640589,0.365435742 L48.7640589,0.365435742 Z" fill-rule="nonzero"></path>
                    </g>
                </g>
            </g>
        </g>
    </g>
</svg>