<?xml version="1.0" encoding="UTF-8"?>
<svg width="73px" height="72px" viewBox="0 0 73 72" version="1.1" xmlns="http://www.w3.org/2000/svg" xmlns:xlink="http://www.w3.org/1999/xlink">
    <!-- Generator: Sketch 45 (43475) - http://www.bohemiancoding.com/sketch -->
    <title>noun_821152_cc</title>
    <desc>Created with Sketch.</desc>
    <defs></defs>
    <g id="Page-1" stroke="none" stroke-width="1" fill="none" fill-rule="evenodd">
        <g id="Desktop-HD" transform="translate(-765.000000, -638.000000)" fill-rule="nonzero" fill="#000000">
            <g id="noun_821152_cc" transform="translate(765.000000, 638.000000)">
                <g id="Group">
                    <g id="Shape">
                        <path d="M1.98164946,0.365435742 L0.792659783,0.365435742 L0.792659783,1.55442542 L0.792659783,23.7335217 C0.769919959,25.3413528 3.1933788,25.3413528 3.17063913,23.7335217 L3.17063913,2.74341509 L24.1606411,2.74341509 C25.7685388,2.76560956 25.7685388,0.342765672 24.1606411,0.365435742 L1.98164946,0.365435742 Z"></path>
                        <path d="M1.96307141,47.1323629 C1.3076091,47.1426142 0.784080273,47.6814024 0.792659783,48.3368887 L0.792659783,71.7048162 L24.1606411,71.7048162 C24.5894335,71.7108804 24.9882747,71.4855959 25.2044406,71.1152285 C25.4206065,70.7448611 25.4206065,70.2867919 25.2044406,69.9164245 C24.9882747,69.5460572 24.5894335,69.3207726 24.1606411,69.3268368 L3.17063913,69.3268368 L3.17063913,48.3368887 C3.17484389,48.0156284 3.04886923,47.7063383 2.82139809,47.4794402 C2.59392694,47.252542 2.28432013,47.1273479 1.96307141,47.1323629 Z"></path>
                        <path d="M70.9244722,47.1323629 C70.26901,47.1426144 69.7454814,47.6814025 69.7540609,48.3368887 L69.7540609,69.3268368 L48.7640589,69.3268368 C48.3352665,69.3207726 47.9364253,69.5460572 47.7202594,69.9164245 C47.5040935,70.2867919 47.5040935,70.7448611 47.7202594,71.1152285 C47.9364253,71.4855959 48.3352665,71.7108804 48.7640589,71.7048162 L72.1320402,71.7048162 L72.1320402,48.3368887 C72.136245,48.0156283 72.0102703,47.7063382 71.7827991,47.4794401 C71.5553278,47.2525419 71.245721,47.1273478 70.9244722,47.1323629 L70.9244722,47.1323629 Z"></path>
                        <path d="M48.7640589,0.365435742 C48.3352665,0.35937155 47.9364253,0.584656065 47.7202594,0.955023439 C47.5040935,1.32539081 47.5040935,1.78346002 47.7202594,2.15382739 C47.9364253,2.52419477 48.3352665,2.74947928 48.7640589,2.74341509 L69.7540609,2.74341509 L69.7540609,23.7335217 C69.7479967,24.1623141 69.9732812,24.5611553 70.3436486,24.7773212 C70.7140159,24.993487 71.1720851,24.993487 71.5424525,24.7773212 C71.9128199,24.5611553 72.1381044,24.1623141 72.1320402,23.7335217 L72.1320402,0.365435742 L48.7640589,0.365435742 L48.7640589,0.365435742 Z"></path>
                    </g>
                </g>
                <g id="Group" transform="translate(16.000000, 20.000000)">
                    <path d="M35.3046469,25.3272467 L35.3046469,0.767492324 C35.3046469,0.343836561 34.9615778,0 34.5371546,0 L0.767492324,0 C0.343836561,0 0,0.343836561 0,0.767492324 L0,25.3272467 C0,25.7516699 0.343836561,26.094739 0.767492324,26.094739 L34.5371546,26.094739 C34.9615778,26.094739 35.3046469,25.7516699 35.3046469,25.3272467 Z M33.7696622,24.5597544 L1.53498465,24.5597544 L1.53498465,1.53498465 L33.7696622,1.53498465 L33.7696622,24.5597544 Z" id="Shape"></path>
                    <path d="M38.3746162,28.397216 L38.3746162,2.30247697 C38.3746162,1.87882121 38.0315471,1.53498465 37.6071239,1.53498465 C37.1827006,1.53498465 36.8396315,1.87882121 36.8396315,2.30247697 L36.8396315,27.6297237 L2.30247697,27.6297237 C1.87882121,27.6297237 1.53498465,27.9727927 1.53498465,28.397216 C1.53498465,28.8216392 1.87882121,29.1647083 2.30247697,29.1647083 L37.6071239,29.1647083 C38.0315471,29.1647083 38.3746162,28.8216392 38.3746162,28.397216 Z" id="Shape"></path>
                    <path d="M40.6770932,3.06996929 C40.2526699,3.06996929 39.9096008,3.41380586 39.9096008,3.83746162 L39.9096008,30.6996929 L3.83746162,30.6996929 C3.41380586,30.6996929 3.06996929,31.042762 3.06996929,31.4671853 C3.06996929,31.8916085 3.41380586,32.2346776 3.83746162,32.2346776 L40.6770932,32.2346776 C41.1015164,32.2346776 41.4445855,31.8916085 41.4445855,31.4671853 L41.4445855,3.83746162 C41.4445855,3.41380586 41.1015164,3.06996929 40.6770932,3.06996929 Z" id="Shape"></path>
                </g>
            </g>
        </g>
    </g>
</svg>