<?xml version="1.0" encoding="UTF-8"?>
<svg width="18px" height="18px" viewBox="0 0 18 18" version="1.1" xmlns="http://www.w3.org/2000/svg" xmlns:xlink="http://www.w3.org/1999/xlink">
    <!-- Generator: Sketch 46.2 (44496) - http://www.bohemiancoding.com/sketch -->
    <title>Group</title>
    <desc>Created with Sketch.</desc>
    <defs></defs>
    <g id="Page-1" stroke="none" stroke-width="1" fill="none" fill-rule="evenodd">
        <g id="Group" fill-rule="nonzero" fill="#C2C2C2">
            <path d="M8.95525533,0.00252470723 C8.86364215,0.0124298575 8.77805511,0.0529724338 8.7123557,0.11758626 L6.25779102,2.57223272 C6.15048973,2.67428327 6.10670293,2.82635008 6.14330252,2.96983885 C6.17990211,3.11332763 6.29117515,3.22584078 6.43424598,3.26402482 C6.57731681,3.30220886 6.72985309,3.26010351 6.83307962,3.1539328 L8.59090589,1.39604796 L8.59090589,8.59378733 L1.39340632,8.59378733 L3.15123259,6.83590249 C3.28143329,6.71361433 3.31725466,6.52099258 3.23972191,6.36007018 C3.16218916,6.19914779 2.98922577,6.10712568 2.81245153,6.13274856 C2.7222936,6.14577418 2.63906111,6.18851661 2.57594399,6.25420242 L0.121379311,8.70884888 C0.0437062139,8.78570073 0,8.8904299 0,8.99969892 C0,9.10896794 0.0437062139,9.2136971 0.121379311,9.29054895 L2.57594399,11.7451954 C2.67917052,11.8513661 2.8317068,11.8934715 2.97477763,11.8552874 C3.11784846,11.8171034 3.2291215,11.7045902 3.26572109,11.5611015 C3.30232068,11.4176127 3.25853388,11.2655459 3.15123259,11.1634953 L1.39340632,9.41200282 L8.59090589,9.41200282 L8.59090589,16.6033499 L6.83307962,14.845465 C6.74642733,14.7566776 6.62417007,14.7120052 6.50069065,14.7240112 C6.34144896,14.7395093 6.20585182,14.8464107 6.15361052,14.9976405 C6.10136923,15.1488704 6.14207043,15.3166769 6.25779102,15.4271651 L8.7123557,17.8818116 C8.87174624,18.0393961 9.12825376,18.0393961 9.2876443,17.8818116 L11.742209,15.4271651 C11.8495103,15.3251146 11.8932971,15.1730478 11.8566975,15.029559 C11.8200979,14.8860702 11.7088249,14.7735571 11.565754,14.735373 C11.4226832,14.697189 11.2701469,14.7392943 11.1669204,14.845465 L9.40909411,16.6033499 L9.40909411,9.41200282 L16.6065937,9.41200282 L14.8487674,11.1634953 C14.7414661,11.2655459 14.6976793,11.4176127 14.7342789,11.5611015 C14.7708785,11.7045902 14.8821515,11.8171034 15.0252224,11.8552874 C15.1682932,11.8934715 15.3208295,11.8513661 15.424056,11.7451954 L17.8786207,9.29054895 C17.9562938,9.2136971 18,9.10896794 18,8.99969892 C18,8.8904299 17.9562938,8.78570073 17.8786207,8.70884888 L15.424056,6.25420242 C15.3374037,6.16541499 15.2151465,6.12074258 15.091667,6.13274856 C14.9324254,6.14824666 14.7968282,6.25514808 14.7445869,6.40637791 C14.6923456,6.55760774 14.7330468,6.72541426 14.8487674,6.83590249 L16.6065937,8.59378733 L9.40909411,8.59378733 L9.40909411,1.39604796 L11.1669204,3.1539328 C11.2701469,3.26010351 11.4226832,3.30220886 11.565754,3.26402482 C11.7088249,3.22584078 11.8200979,3.11332763 11.8566975,2.96983885 C11.8932971,2.82635008 11.8495103,2.67428327 11.742209,2.57223272 L9.2876443,0.11758626 C9.19982924,0.0311309203 9.07772523,-0.0111372631 8.95525533,0.00252470723 Z" id="Shape"></path>
        </g>
    </g>
</svg>